<?xml version="1.0" ?><svg viewBox="0 0 512 512" xmlns="http://www.w3.org/2000/svg"><title/><g data-name="1" id="_1"><path d="M393.43,450H164.56a50.17,50.17,0,0,1-50.11-50.11V98.11A50.17,50.17,0,0,1,164.56,48h150.1a15,15,0,0,1,10.61,4.39L439.15,166.27a15,15,0,0,1,4.39,10.61v223A50.17,50.17,0,0,1,393.43,450ZM164.56,78a20.13,20.13,0,0,0-20.11,20.11V399.89A20.13,20.13,0,0,0,164.56,420H393.43a20.13,20.13,0,0,0,20.11-20.11V183.09L308.45,78Z"/><path d="M428.54,191.88H349.77a50.17,50.17,0,0,1-50.11-50.11V63a15,15,0,0,1,30,0v78.77a20.13,20.13,0,0,0,20.11,20.11h78.77a15,15,0,1,1,0,30Z"/><path d="M189.91,349.43a7.07,7.07,0,0,1,.27-1.45l24.62-80.75c1.46-4.63,7.41-6.88,13.5-6.88s12,2.25,13.5,6.88L266.56,348a7,7,0,0,1,.26,1.45c0,4.9-7.54,8.47-13.24,8.47-3.31,0-6-1-6.75-3.83l-4.5-16.55H214.4l-4.5,16.55c-.79,2.78-3.44,3.83-6.75,3.83C197.46,357.9,189.91,354.33,189.91,349.43ZM238,321.64l-9.66-35.48-9.66,35.48Z"/><path d="M263.11,271.07a7,7,0,0,1-.26-1.46c0-4.89,7.54-8.47,13.24-8.47,3.3,0,6,1.06,6.75,3.84l18.53,67.91L319.77,265c.79-2.78,3.44-3.84,6.75-3.84,5.69,0,13.24,3.58,13.24,8.47a7,7,0,0,1-.27,1.46l-24.62,80.75c-1.46,4.63-7.41,6.88-13.5,6.88s-12.05-2.25-13.5-6.88Z"/><path d="M347.43,267.36c0-4.36,5.16-6.22,10.33-6.22s10.32,1.86,10.32,6.22v84.19c0,4.24-5.16,6.35-10.32,6.35s-10.33-2.11-10.33-6.35Z"/></g></svg>